<svg xmlns="http://www.w3.org/2000/svg" viewBox="0 0 24 24">
  <symbol id="settings" viewBox="0 0 24 24">
    <line x1="4" y1="7" x2="20" y2="7" stroke="currentColor" stroke-width="2" stroke-linecap="round"/>
    <circle cx="10" cy="7" r="2" fill="none" stroke="currentColor" stroke-width="2"/>
    <line x1="4" y1="12" x2="20" y2="12" stroke="currentColor" stroke-width="2" stroke-linecap="round"/>
    <circle cx="14" cy="12" r="2" fill="none" stroke="currentColor" stroke-width="2"/>
    <line x1="4" y1="17" x2="20" y2="17" stroke="currentColor" stroke-width="2" stroke-linecap="round"/>
    <circle cx="8" cy="17" r="2" fill="none" stroke="currentColor" stroke-width="2"/>
  </symbol>
  <symbol id="sound" viewBox="0 0 24 24">
    <polygon points="5,9 9,9 13,5 13,19 9,15 5,15" fill="none" stroke="currentColor" stroke-width="2" stroke-linejoin="round"/>
    <path d="M16 9c1.5 1.5 1.5 4.5 0 6" fill="none" stroke="currentColor" stroke-width="2" stroke-linecap="round"/>
    <path d="M18 7c3 3 3 7 0 10" fill="none" stroke="currentColor" stroke-width="2" stroke-linecap="round"/>
  </symbol>
  <symbol id="tasks" viewBox="0 0 24 24">
    <rect x="3" y="4" width="18" height="16" rx="2" ry="2" fill="none" stroke="currentColor" stroke-width="2"/>
    <polyline points="7,9 9,11 13,7" fill="none" stroke="currentColor" stroke-width="2" stroke-linecap="round" stroke-linejoin="round"/>
    <line x1="7" y1="14" x2="17" y2="14" stroke="currentColor" stroke-width="2" stroke-linecap="round"/>
  </symbol>
  <symbol id="calendar-day" viewBox="0 0 24 24">
    <rect x="3" y="5" width="18" height="16" rx="2" ry="2" fill="none" stroke="currentColor" stroke-width="2"/>
    <line x1="7" y1="3" x2="7" y2="7" stroke="currentColor" stroke-width="2" stroke-linecap="round"/>
    <line x1="17" y1="3" x2="17" y2="7" stroke="currentColor" stroke-width="2" stroke-linecap="round"/>
    <rect x="7" y="10" width="4" height="4" fill="none" stroke="currentColor" stroke-width="2" rx="1"/>
  </symbol>
  <symbol id="calendar-week" viewBox="0 0 24 24">
    <rect x="3" y="5" width="18" height="16" rx="2" ry="2" fill="none" stroke="currentColor" stroke-width="2"/>
    <line x1="7" y1="3" x2="7" y2="7" stroke="currentColor" stroke-width="2" stroke-linecap="round"/>
    <line x1="17" y1="3" x2="17" y2="7" stroke="currentColor" stroke-width="2" stroke-linecap="round"/>
    <line x1="7" y1="11" x2="7" y2="18" stroke="currentColor" stroke-width="2"/>
    <line x1="12" y1="11" x2="12" y2="18" stroke="currentColor" stroke-width="2"/>
    <line x1="17" y1="11" x2="17" y2="18" stroke="currentColor" stroke-width="2"/>
  </symbol>
  <symbol id="trash" viewBox="0 0 24 24">
    <polyline points="4,7 20,7" fill="none" stroke="currentColor" stroke-width="2" stroke-linecap="round"/>
    <rect x="6" y="7" width="12" height="13" rx="2" fill="none" stroke="currentColor" stroke-width="2"/>
    <rect x="9" y="3" width="6" height="3" rx="1" fill="none" stroke="currentColor" stroke-width="2"/>
  </symbol>
  <symbol id="plus" viewBox="0 0 24 24">
    <line x1="12" y1="5" x2="12" y2="19" stroke="currentColor" stroke-width="2" stroke-linecap="round"/>
    <line x1="5" y1="12" x2="19" y2="12" stroke="currentColor" stroke-width="2" stroke-linecap="round"/>
  </symbol>
  <symbol id="save" viewBox="0 0 24 24">
    <rect x="4" y="4" width="16" height="16" rx="2" fill="none" stroke="currentColor" stroke-width="2"/>
    <rect x="8" y="4" width="8" height="6" fill="none" stroke="currentColor" stroke-width="2"/>
    <rect x="8" y="12" width="8" height="6" fill="none" stroke="currentColor" stroke-width="2" rx="1"/>
  </symbol>
  <symbol id="refresh" viewBox="0 0 24 24">
    <path d="M20 12a8 8 0 1 1-2.3-5.7" fill="none" stroke="currentColor" stroke-width="2" stroke-linecap="round"/>
    <polyline points="20,6 20,12 14,12" fill="none" stroke="currentColor" stroke-width="2" stroke-linecap="round" stroke-linejoin="round"/>
  </symbol>
  <symbol id="arrow-left" viewBox="0 0 24 24">
    <polyline points="14,6 8,12 14,18" fill="none" stroke="currentColor" stroke-width="2" stroke-linecap="round" stroke-linejoin="round"/>
  </symbol>
  <symbol id="check" viewBox="0 0 24 24">
    <polyline points="5,13 9,17 19,7" fill="none" stroke="currentColor" stroke-width="2" stroke-linecap="round" stroke-linejoin="round"/>
  </symbol>
</svg>
